{
  "accessors": [
    {
      "bufferView": 2,
      "componentType": 5126,
      "count": 190,
      "max": [
        24.620195388793945,
        37.642673492431641,
        24.246158599853516
      ],
      "min": [
        -23.135417938232422,
        -9.4011306762695312,
        -24.246160507202148
      ],
      "type": "VEC3"
    },
    {
      "bufferView": 2,
      "byteOffset": 2280,
      "componentType": 5126,
      "count": 190,
      "max": [
        1,
        1,
        0.98480844497680664
      ],
      "min": [
        -0.93969148397445679,
        -1,
        -0.98480844497680664
      ],
      "type": "VEC3"
    },
    {
      "bufferView": 3,
      "componentType": 5126,
      "count": 190,
      "max": [
        1,
        1,
        0.97937816381454468,
        1
      ],
      "min": [
        -0.86602580547332764,
        -1,
        -1,
        1
      ],
      "type": "VEC4"
    },
    {
      "bufferView": 1,
      "componentType": 5126,
      "count": 190,
      "max": [
        0.62173539400100708,
        0.59361875057220459
      ],
      "min": [
        0.0078125,
        0.0078125
      ],
      "type": "VEC2"
    },
    {
      "bufferView": 0,
      "componentType": 5125,
      "count": 567,
      "max": [
        189
      ],
      "min": [
        0
      ],
      "type": "SCALAR"
    },
    {
      "bufferView": 2,
      "byteOffset": 4560,
      "componentType": 5126,
      "count": 172,
      "max": [
        80.425346374511719,
        6.8265852928161621,
        124.31992340087891
      ],
      "min": [
        -138.83193969726562,
        4.4842467308044434,
        -124.31990814208984
      ],
      "type": "VEC3"
    },
    {
      "bufferView": 2,
      "byteOffset": 6624,
      "componentType": 5126,
      "count": 172,
      "max": [
        1,
        1,
        1
      ],
      "min": [
        -0.97546219825744629,
        -1,
        -1
      ],
      "type": "VEC3"
    },
    {
      "bufferView": 3,
      "byteOffset": 3040,
      "componentType": 5126,
      "count": 172,
      "max": [
        1,
        5.2254099500714801e-06,
        1,
        1
      ],
      "min": [
        -1,
        -1,
        -1,
        1
      ],
      "type": "VEC4"
    },
    {
      "bufferView": 1,
      "byteOffset": 1520,
      "componentType": 5126,
      "count": 172,
      "max": [
        0.72441095113754272,
        0.6539992094039917
      ],
      "min": [
        0.0078125,
        0.0078125
      ],
      "type": "VEC2"
    },
    {
      "bufferView": 0,
      "byteOffset": 2268,
      "componentType": 5125,
      "count": 324,
      "max": [
        171
      ],
      "min": [
        0
      ],
      "type": "SCALAR"
    },
    {
      "bufferView": 4,
      "componentType": 5126,
      "count": 121,
      "max": [
        4
      ],
      "min": [
        0
      ],
      "type": "SCALAR"
    },
    {
      "bufferView": 5,
      "componentType": 5126,
      "count": 121,
      "max": [
        8.3644933675280686e-17,
        1,
        8.3644933675280686e-17,
        1
      ],
      "min": [
        -8.6565933411332041e-17,
        -0.85264015197753906,
        -8.6565933411332041e-17,
        -0.5
      ],
      "type": "VEC4"
    }
  ],
  "animations": [
    {
      "channels": [
        {
          "sampler": 0,
          "target": {
            "node": 8,
            "path": "rotation"
          }
        }
      ],
      "name": "Take 001",
      "samplers": [
        {
          "input": 10,
          "interpolation": "LINEAR",
          "output": 11
        }
      ]
    }
  ],
  "asset": {
    "extras": {
      "author": "mozillareality (https://sketchfab.com/mozillareality)",
      "license": "CC-BY-4.0 (http://creativecommons.org/licenses/by/4.0/)",
      "source": "https://sketchfab.com/models/ec2c6087d4824211abc827f2a4c2b578",
      "title": "Ceiling Fan"
    },
    "generator": "Sketchfab-3.41.2",
    "version": "2.0"
  },
  "bufferViews": [
    {
      "buffer": 0,
      "byteLength": 3564,
      "byteOffset": 0,
      "name": "floatBufferViews",
      "target": 34963
    },
    {
      "buffer": 0,
      "byteLength": 2896,
      "byteOffset": 3564,
      "byteStride": 8,
      "name": "floatBufferViews",
      "target": 34962
    },
    {
      "buffer": 0,
      "byteLength": 8688,
      "byteOffset": 6460,
      "byteStride": 12,
      "name": "floatBufferViews",
      "target": 34962
    },
    {
      "buffer": 0,
      "byteLength": 5792,
      "byteOffset": 15148,
      "byteStride": 16,
      "name": "floatBufferViews",
      "target": 34962
    },
    {
      "buffer": 0,
      "byteLength": 484,
      "byteOffset": 20940,
      "name": "floatBufferViews"
    },
    {
      "buffer": 0,
      "byteLength": 1936,
      "byteOffset": 21424,
      "byteStride": 16,
      "name": "floatBufferViews"
    }
  ],
  "buffers": [
    {
      "byteLength": 23360,
      "uri": "scene.bin"
    }
  ],
  "images": [
    {
      "uri": "textures/lambert1_metallicRoughness.png"
    },
    {
      "uri": "textures/lambert1_baseColor.jpeg"
    },
    {
      "uri": "textures/lambert1_emissive.jpeg"
    }
  ],
  "materials": [
    {
      "doubleSided": false,
      "emissiveFactor": [
        1,
        1,
        1
      ],
      "emissiveTexture": {
        "index": 2,
        "texCoord": 0
      },
      "name": "lambert1",
      "occlusionTexture": {
        "index": 0,
        "strength": 1,
        "texCoord": 0
      },
      "pbrMetallicRoughness": {
        "baseColorFactor": [
          1,
          1,
          1,
          1
        ],
        "baseColorTexture": {
          "index": 1,
          "texCoord": 0
        },
        "metallicFactor": 1,
        "metallicRoughnessTexture": {
          "index": 0,
          "texCoord": 0
        },
        "roughnessFactor": 1
      }
    }
  ],
  "meshes": [
    {
      "name": "fanBase1_lambert1_0",
      "primitives": [
        {
          "attributes": {
            "NORMAL": 1,
            "POSITION": 0,
            "TANGENT": 2,
            "TEXCOORD_0": 3
          },
          "indices": 4,
          "material": 0,
          "mode": 4
        }
      ]
    },
    {
      "name": "fanBlades1_lambert1_0",
      "primitives": [
        {
          "attributes": {
            "NORMAL": 6,
            "POSITION": 5,
            "TANGENT": 7,
            "TEXCOORD_0": 8
          },
          "indices": 9,
          "material": 0,
          "mode": 4
        }
      ]
    }
  ],
  "nodes": [
    {
      "children": [
        1
      ],
      "name": "RootNode (gltf orientation matrix)",
      "rotation": [
        -0.70710678118654746,
        -0,
        -0,
        0.70710678118654757
      ]
    },
    {
      "children": [
        2
      ],
      "name": "RootNode (model correction matrix)"
    },
    {
      "children": [
        3
      ],
      "matrix": [
        1,
        0,
        0,
        0,
        0,
        0,
        1,
        0,
        0,
        -1,
        0,
        0,
        0,
        0,
        0,
        1
      ],
      "name": "2174d995a38547df9c0bce5ac2ea41b2.fbx"
    },
    {
      "children": [
        4
      ],
      "name": ""
    },
    {
      "children": [
        5
      ],
      "name": "RootNode"
    },
    {
      "children": [
        6
      ],
      "name": "ceilingfan1",
      "translation": [
        0,
        -288.23309326171875,
        0
      ]
    },
    {
      "children": [
        7,
        8
      ],
      "name": "fanBase1",
      "translation": [
        0,
        250.59042358398438,
        0
      ]
    },
    {
      "mesh": 0,
      "name": "fanBase1_lambert1_0"
    },
    {
      "children": [
        9
      ],
      "name": "fanBlades1",
      "translation": [
        0,
        3.1263880373444408e-13,
        0
      ]
    },
    {
      "mesh": 1,
      "name": "fanBlades1_lambert1_0"
    }
  ],
  "samplers": [
    {
      "magFilter": 9729,
      "minFilter": 9987,
      "wrapS": 10497,
      "wrapT": 10497
    }
  ],
  "scene": 0,
  "scenes": [
    {
      "name": "OSG_Scene",
      "nodes": [
        0
      ]
    }
  ],
  "textures": [
    {
      "sampler": 0,
      "source": 0
    },
    {
      "sampler": 0,
      "source": 1
    },
    {
      "sampler": 0,
      "source": 2
    }
  ]
}

