{
  "accessors": [
    {
      "bufferView": 2,
      "componentType": 5126,
      "count": 6263,
      "max": [
        0.71116602420806885,
        0.054053701460361481,
        0.78988498449325562
      ],
      "min": [
        -0.71370100975036621,
        -0.0066420999355614185,
        0.38700398802757263
      ],
      "type": "VEC3"
    },
    {
      "bufferView": 2,
      "byteOffset": 75156,
      "componentType": 5126,
      "count": 6263,
      "max": [
        0.98037177324295044,
        1,
        0.98684066534042358
      ],
      "min": [
        -0.98037177324295044,
        0.15869493782520294,
        -0.98732763528823853
      ],
      "type": "VEC3"
    },
    {
      "bufferView": 3,
      "componentType": 5126,
      "count": 6263,
      "max": [
        1,
        0.97735852003097534,
        0.75416803359985352,
        1
      ],
      "min": [
        -0.99704980850219727,
        -0.9872429370880127,
        -1,
        1
      ],
      "type": "VEC4"
    },
    {
      "bufferView": 1,
      "componentType": 5126,
      "count": 6263,
      "max": [
        0.97582501173019409,
        0.99949997663497925
      ],
      "min": [
        0.00046155299060046673,
        0.00049950001994147897
      ],
      "type": "VEC2"
    },
    {
      "bufferView": 0,
      "componentType": 5125,
      "count": 15060,
      "max": [
        6262
      ],
      "min": [
        0
      ],
      "type": "SCALAR"
    },
    {
      "bufferView": 2,
      "byteOffset": 150312,
      "componentType": 5126,
      "count": 1027,
      "max": [
        0.73761999607086182,
        0.033135700970888138,
        1
      ],
      "min": [
        -0.73761999607086182,
        -0.054053701460361481,
        -1
      ],
      "type": "VEC3"
    },
    {
      "bufferView": 2,
      "byteOffset": 162636,
      "componentType": 5126,
      "count": 1027,
      "max": [
        1,
        0.99980998039245605,
        0.999969482421875
      ],
      "min": [
        -1,
        -0.96908402442932129,
        -1
      ],
      "type": "VEC3"
    },
    {
      "bufferView": 3,
      "byteOffset": 100208,
      "componentType": 5126,
      "count": 1027,
      "max": [
        1,
        1,
        0.88710862398147583,
        1
      ],
      "min": [
        -0.9590105414390564,
        -1,
        -0.99980998039245605,
        -1
      ],
      "type": "VEC4"
    },
    {
      "bufferView": 1,
      "byteOffset": 50104,
      "componentType": 5126,
      "count": 1027,
      "max": [
        0.99800801277160645,
        0.96928799152374268
      ],
      "min": [
        0.001992030069231987,
        0.0019347099587321281
      ],
      "type": "VEC2"
    },
    {
      "bufferView": 0,
      "byteOffset": 60240,
      "componentType": 5125,
      "count": 3006,
      "max": [
        1026
      ],
      "min": [
        0
      ],
      "type": "SCALAR"
    }
  ],
  "asset": {
    "extras": {
      "author": "ElliotGriffiths (https://sketchfab.com/ElliotGriffiths24)",
      "license": "CC-BY-4.0 (http://creativecommons.org/licenses/by/4.0/)",
      "source": "https://sketchfab.com/3d-models/corsair-strafe-rgb-dc170f71703644f9a675ebba196af617",
      "title": "Corsair Strafe RGB"
    },
    "generator": "Sketchfab-7.65.0",
    "version": "2.0"
  },
  "bufferViews": [
    {
      "buffer": 0,
      "byteLength": 72264,
      "byteOffset": 0,
      "name": "floatBufferViews",
      "target": 34963
    },
    {
      "buffer": 0,
      "byteLength": 58320,
      "byteOffset": 72264,
      "byteStride": 8,
      "name": "floatBufferViews",
      "target": 34962
    },
    {
      "buffer": 0,
      "byteLength": 174960,
      "byteOffset": 130584,
      "byteStride": 12,
      "name": "floatBufferViews",
      "target": 34962
    },
    {
      "buffer": 0,
      "byteLength": 116640,
      "byteOffset": 305544,
      "byteStride": 16,
      "name": "floatBufferViews",
      "target": 34962
    }
  ],
  "buffers": [
    {
      "byteLength": 422184,
      "uri": "scene.bin"
    }
  ],
  "images": [
    {
      "uri": "textures/Body1_baseColor.jpeg"
    },
    {
      "uri": "textures/Body1_metallicRoughness.png"
    },
    {
      "uri": "textures/Body1_emissive.jpeg"
    },
    {
      "uri": "textures/Body1_normal.png"
    },
    {
      "uri": "textures/Keys1_baseColor.jpeg"
    },
    {
      "uri": "textures/Keys1_metallicRoughness.png"
    },
    {
      "uri": "textures/Keys1_emissive.jpeg"
    },
    {
      "uri": "textures/Keys1_normal.png"
    }
  ],
  "materials": [
    {
      "doubleSided": true,
      "emissiveFactor": [
        1,
        1,
        1
      ],
      "emissiveTexture": {
        "index": 2,
        "texCoord": 0
      },
      "name": "Body1",
      "normalTexture": {
        "index": 3,
        "scale": 1,
        "texCoord": 0
      },
      "occlusionTexture": {
        "index": 1,
        "strength": 1,
        "texCoord": 0
      },
      "pbrMetallicRoughness": {
        "baseColorFactor": [
          1,
          1,
          1,
          1
        ],
        "baseColorTexture": {
          "index": 0,
          "texCoord": 0
        },
        "metallicFactor": 1,
        "metallicRoughnessTexture": {
          "index": 1,
          "texCoord": 0
        },
        "roughnessFactor": 1
      }
    },
    {
      "doubleSided": true,
      "emissiveFactor": [
        1,
        1,
        1
      ],
      "emissiveTexture": {
        "index": 6,
        "texCoord": 0
      },
      "name": "Keys1",
      "normalTexture": {
        "index": 7,
        "scale": 1,
        "texCoord": 0
      },
      "occlusionTexture": {
        "index": 5,
        "strength": 1,
        "texCoord": 0
      },
      "pbrMetallicRoughness": {
        "baseColorFactor": [
          1,
          1,
          1,
          1
        ],
        "baseColorTexture": {
          "index": 4,
          "texCoord": 0
        },
        "metallicFactor": 1,
        "metallicRoughnessTexture": {
          "index": 5,
          "texCoord": 0
        },
        "roughnessFactor": 1
      }
    }
  ],
  "meshes": [
    {
      "name": "defaultMaterial",
      "primitives": [
        {
          "attributes": {
            "NORMAL": 1,
            "POSITION": 0,
            "TANGENT": 2,
            "TEXCOORD_0": 3
          },
          "indices": 4,
          "material": 1,
          "mode": 4
        }
      ]
    },
    {
      "name": "defaultMaterial",
      "primitives": [
        {
          "attributes": {
            "NORMAL": 6,
            "POSITION": 5,
            "TANGENT": 7,
            "TEXCOORD_0": 8
          },
          "indices": 9,
          "material": 0,
          "mode": 4
        }
      ]
    }
  ],
  "nodes": [
    {
      "children": [
        1
      ],
      "name": "RootNode (gltf orientation matrix)",
      "rotation": [
        -0.70710678118654746,
        -0,
        -0,
        0.70710678118654757
      ]
    },
    {
      "children": [
        2
      ],
      "name": "RootNode (model correction matrix)"
    },
    {
      "children": [
        3,
        5
      ],
      "matrix": [
        1,
        0,
        0,
        0,
        0,
        -4.3711390063094768e-08,
        0.999999999999999,
        0,
        0,
        -0.999999999999999,
        -4.3711390063094768e-08,
        0,
        0,
        0,
        0,
        1
      ],
      "name": "Collada visual scene group"
    },
    {
      "children": [
        4
      ],
      "name": "Keyboard"
    },
    {
      "mesh": 0,
      "name": "defaultMaterial"
    },
    {
      "children": [
        6
      ],
      "name": "Keyboard"
    },
    {
      "mesh": 1,
      "name": "defaultMaterial"
    }
  ],
  "samplers": [
    {
      "magFilter": 9729,
      "minFilter": 9987,
      "wrapS": 10497,
      "wrapT": 10497
    }
  ],
  "scene": 0,
  "scenes": [
    {
      "name": "OSG_Scene",
      "nodes": [
        0
      ]
    }
  ],
  "textures": [
    {
      "sampler": 0,
      "source": 0
    },
    {
      "sampler": 0,
      "source": 1
    },
    {
      "sampler": 0,
      "source": 2
    },
    {
      "sampler": 0,
      "source": 3
    },
    {
      "sampler": 0,
      "source": 4
    },
    {
      "sampler": 0,
      "source": 5
    },
    {
      "sampler": 0,
      "source": 6
    },
    {
      "sampler": 0,
      "source": 7
    }
  ]
}

